<?xml version="1.0" encoding="UTF-8" standalone="no"?>
<!-- Created with Inkscape (http://www.inkscape.org/) -->

<svg
   width="54.723507mm"
   height="72.915443mm"
   viewBox="0 0 54.723507 72.915443"
   version="1.1"
   id="svg1"
   xml:space="preserve"
   xmlns="http://www.w3.org/2000/svg"
   xmlns:svg="http://www.w3.org/2000/svg"><defs
     id="defs1" /><g
     id="layer1"
     transform="translate(-88.964107,-103.98952)"><path
       style="fill:#000000"
       d="m 100.98104,176.89327 c 0,-0.0452 0.96139,-2.02756 2.13642,-4.40516 2.23779,-4.52803 2.80423,-5.99465 3.07495,-7.96155 0.26089,-1.8955 -0.09,-4.92226 -0.77091,-6.64973 -0.27756,-0.70418 -0.27767,-1.06852 -2.3e-4,-0.76727 0.21765,0.23632 0.77383,2.09051 0.9889,3.29678 0.40842,2.29063 0.18052,4.95373 -0.61523,7.18933 -0.55641,1.5632 -4.11102,8.76049 -4.49278,9.0969 -0.17662,0.15563 -0.32112,0.24594 -0.32112,0.2007 z m 25.78243,-1.67876 c -0.22588,-0.11718 -0.90352,-0.67332 -1.50589,-1.23586 -0.60236,-0.56254 -1.91177,-1.64939 -2.90981,-2.41522 -3.53983,-2.71625 -4.71274,-3.70573 -7.12128,-6.00762 -1.34017,-1.28082 -3.60641,-3.3154 -5.03609,-4.5213 -4.44635,-3.75038 -10.493563,-10.20663 -13.006503,-13.88627 -1.40509,-2.05742 -2.73912,-4.54733 -3.502,-6.5363 -0.56277,-1.46725 -0.62777,-1.77028 -0.63717,-2.97076 -0.0155,-1.97646 0.33416,-2.6095 2.74844,-4.97602 1.13047,-1.10812 2.03024,-2.12623 2.23164,-2.52515 0.43815,-0.86787 0.43277,-1.90092 -0.0153,-2.94088 -0.38665,-0.8974 -0.70694,-1.11429 -1.99797,-1.35295 -0.99315,-0.18359 -1.48967,-0.55967 -1.62371,-1.22987 -0.0772,-0.38598 -0.13974,-0.43796 -0.42496,-0.3532 -1.02549,0.30478 -1.42116,0.27725 -1.79377,-0.1248 -0.45217,-0.48791 -0.57385,-1.19941 -0.31358,-1.83368 0.21641,-0.52738 0.296,-0.55688 0.89162,-0.33043 0.76642,0.2914 0.92992,0.10314 0.84367,-0.97138 -0.10788,-1.34397 0.39044,-1.88021 0.9515,-1.02392 0.23806,0.36333 0.23721,0.42955 -0.0151,1.1719 -0.25777,0.75837 -0.25772,0.81228 0.002,1.49138 l 0.26908,0.70457 0.40228,-0.45023 c 0.24068,-0.26936 0.44219,-0.70991 0.50162,-1.09664 0.0546,-0.35553 0.2381,-1.12965 0.40769,-1.72026 0.25103,-0.87424 0.2735,-1.11582 0.12089,-1.29971 -0.15774,-0.19006 -0.13748,-0.22586 0.12781,-0.22586 0.42895,0 0.41506,0.48267 -0.0693,2.40779 -0.4037,1.60457 -0.73271,2.29567 -1.24093,2.60662 -0.35178,0.21524 -0.41951,1.0152 -0.11984,1.41529 0.10431,0.13926 0.63394,0.3409 1.20854,0.46011 0.56258,0.11672 1.19758,0.33892 1.41111,0.49378 0.63776,0.4625 1.11237,1.58789 1.11237,2.63765 0,1.37647 -0.36689,1.97092 -2.52824,4.09629 -2.29181,2.25366 -2.7594,3.06531 -2.75913,4.78928 3.8e-4,2.32571 2.08301,6.75307 4.97588,10.57798 2.494283,3.2979 7.961563,9.0685 11.516013,12.15489 1.44545,1.25511 3.71006,3.28604 5.03247,4.51318 2.79315,2.59192 4.33367,3.90183 6.80497,5.78629 0.98035,0.74755 2.57517,2.03677 3.54403,2.86493 0.96887,0.82816 1.83782,1.48099 1.931,1.45074 0.38942,-0.12644 0.84753,-1.30904 1.05601,-2.72606 0.68876,-4.68148 0.87579,-10.10242 0.45152,-13.08688 -0.43087,-3.03083 -1.51092,-7.02915 -2.75919,-10.2144 -1.62897,-4.15671 -2.10262,-5.82732 -2.78961,-9.83936 -0.50016,-2.92094 -0.73261,-3.45437 -1.98977,-4.56613 -1.08419,-0.9588 -2.44402,-1.73953 -4.25221,-2.44137 -0.84721,-0.32884 -2.01695,-0.89589 -2.59942,-1.26013 -1.00191,-0.62652 -3.82392,-3.03625 -3.93063,-3.35638 -0.1173,-0.35187 0.28711,-0.0599 1.6833,1.2154 1.91574,1.74984 2.82378,2.32885 4.94841,3.15536 2.13426,0.83025 3.34519,1.53352 4.56805,2.653 1.26898,1.16169 1.61061,1.9214 1.91783,4.26476 0.42821,3.26626 1.19858,6.05033 2.75379,9.95205 1.72375,4.32452 2.78161,8.5503 3.12211,12.4718 0.29445,3.39099 -0.51107,11.87992 -1.26926,13.37614 -0.45946,0.90669 -0.76954,1.0958 -1.32458,0.80784 z M 94.259687,123.75448 c 0.0905,-0.004 0.0229,-0.53471 -0.13561,-1.0636 -0.14757,-0.49256 -0.21791,-0.56112 -0.48275,-0.47053 -0.1705,0.0583 -0.59512,0.0901 -0.9436,0.0705 -0.74475,-0.0418 -0.873,0.14327 -0.67615,0.97563 0.18257,0.77199 0.61501,0.97099 1.51585,0.69757 0.37682,-0.11437 0.70184,-0.20867 0.72226,-0.20956 z m 0.0319,-3.28839 c 0.003,-0.13296 -0.0872,-0.31852 -0.20028,-0.41234 -0.16637,-0.13807 -0.22357,-0.0745 -0.30007,0.33321 -0.052,0.2771 -0.0496,0.62089 0.005,0.76399 0.0886,0.23096 0.12174,0.22069 0.2948,-0.0915 0.10723,-0.1934 0.19734,-0.46043 0.20023,-0.5934 z m 35.411643,42.01807 c 0.3561,-2.90148 0.25311,-7.14319 -0.28555,-11.76092 l -0.20668,-1.77175 0.85024,-0.83016 c 0.46763,-0.45658 0.97737,-1.11311 1.13274,-1.45895 0.31292,-0.6965 0.7851,-0.91669 0.53066,-0.24746 -0.27009,0.71039 -0.49004,1.02787 -1.30181,1.87904 l -0.80995,0.84928 0.27088,2.12148 c 0.20783,1.62766 0.27253,3.17606 0.27796,6.6519 0.007,4.45678 -0.0576,5.34737 -0.38779,5.34737 -0.11387,0 -0.13619,-0.24621 -0.0707,-0.77983 z m -10.48711,-5.11006 c -0.5934,-0.70687 -1.63834,-1.92674 -2.32209,-2.71082 -2.56852,-2.94542 -4.81471,-6.04931 -5.81507,-8.03555 -0.52626,-1.0449 -2.07684,-4.8569 -2.07684,-5.10579 0,-0.4309 0.42031,0.39977 1.25224,2.47483 1.09233,2.72456 1.7818,3.96983 3.32065,5.99748 1.19744,1.57781 6.41893,7.57183 6.41893,7.36863 0,-0.0644 -0.20016,-0.70548 -0.44481,-1.42475 -1.12095,-3.2957 -1.41884,-5.18336 -1.7037,-10.79578 -0.23611,-4.65194 -0.30201,-5.39278 -0.55804,-6.27334 -0.29982,-1.03114 -0.43163,-1.07562 -3.2877,-1.1095 -4.53168,-0.0538 -5.74808,-0.32415 -7.34514,-1.63282 -0.90432,-0.74103 -0.65808,-0.78638 0.40721,-0.075 1.63021,1.08862 3.0198,1.35926 7.0019,1.36375 3.08491,0.003 3.0415,-0.0185 3.52635,1.7854 0.24061,0.8952 0.33271,1.96019 0.46885,5.42164 0.23433,5.95767 0.55226,7.93804 1.93045,12.02462 0.32933,0.97652 0.59878,1.82876 0.59878,1.89386 0,0.33285 -0.39508,-0.003 -1.37197,-1.16685 z m 20.71289,-3.40612 c -1.0192,-0.50789 -2.71779,-2.33169 -4.89957,-5.26072 -1.22929,-1.65033 -2.35285,-2.93331 -3.96744,-4.53041 -2.43147,-2.40512 -3.60582,-3.81522 -6.06149,-7.27836 -3.31084,-4.66913 -3.99162,-5.3533 -7.46404,-7.50117 -1.12265,-0.69441 -2.33295,-1.52994 -2.68956,-1.85672 -0.78661,-0.72083 -1.80045,-2.4796 -2.52592,-4.38188 -0.29598,-0.77611 -1.03626,-2.35683 -1.64506,-3.51271 -1.07621,-2.0433 -1.76464,-2.92595 -3.15919,-4.05048 -0.36293,-0.29265 -0.36404,-0.29955 -0.0491,-0.30438 0.42563,-0.007 1.85091,1.3065 2.57394,2.37122 0.85748,1.26269 2.4806,4.4212 2.88891,5.62168 0.96132,2.82642 1.89994,3.91334 5.09389,5.89874 3.16776,1.96912 4.26808,3.08316 7.37371,7.46561 2.90781,4.10331 3.35746,4.64492 5.99771,7.22438 2.11387,2.06522 2.59895,2.63405 5.00933,5.87425 2.00445,2.69452 3.20779,3.80231 4.51162,4.1534 0.86183,0.23206 1.54284,-6.6e-4 1.95542,-0.66822 0.2967,-0.48008 0.45534,-1.53624 0.79119,-5.26764 0.0331,-0.36763 0.0322,0.13369 -0.002,1.11404 -0.0756,2.17203 -0.2758,3.66468 -0.56696,4.22773 -0.30086,0.5818 -1.10389,1.04537 -1.81086,1.04537 -0.33085,0 -0.91883,-0.16656 -1.35463,-0.38373 z m 3.29348,-7.84232 c -0.17309,-0.49997 -0.36827,-1.03698 -0.43372,-1.19335 -0.0803,-0.19192 -0.0663,-0.25173 0.0432,-0.18406 0.18422,0.11385 0.83013,1.96066 0.75462,2.15764 -0.0272,0.0709 -0.191,-0.28025 -0.3641,-0.78023 z m -6.82334,-6.58236 c -1.07584,-0.88216 -5.93317,-5.61176 -11.27733,-10.98078 -2.23957,-2.24999 -3.54267,-3.43128 -4.608,-4.17726 -2.04499,-1.43196 -3.17013,-2.68214 -4.13704,-4.5968 l -0.38928,-0.77086 -1.96502,-0.63869 c -1.48404,-0.48236 -2.17887,-0.79613 -2.8387,-1.28187 -0.48053,-0.35374 -0.83816,-0.67869 -0.79474,-0.72212 0.0434,-0.0434 0.30058,0.0896 0.57146,0.29569 0.77349,0.58837 1.85917,1.07306 3.38899,1.513 0.77611,0.22319 1.53152,0.51157 1.67868,0.64085 0.14716,0.12927 0.49927,0.67276 0.78247,1.20775 0.73469,1.3879 2.09723,2.82753 3.8336,4.05051 1.17052,0.82443 2.86869,2.41038 7.66783,7.1611 6.11173,6.05008 8.70672,8.50916 8.83942,8.37646 0.064,-0.0641 -1.22156,-2.04584 -3.25269,-5.01412 -0.977,-1.42777 -1.58835,-2.59405 -2.46424,-4.70101 -1.27199,-3.05981 -2.39818,-4.6934 -4.84828,-7.03265 -1.69447,-1.61781 -2.95482,-2.37652 -4.47053,-2.69118 -0.82604,-0.17148 -2.22184,-0.12939 -2.7531,0.083 -0.15022,0.0601 -0.25994,0.0369 -0.25994,-0.0548 0,-0.27028 1.215,-0.50542 2.16111,-0.41824 2.08474,0.19211 3.81302,1.16843 6.08801,3.43918 1.7019,1.69872 3.00048,3.54867 3.85964,5.49838 1.58236,3.59089 2.29767,4.83947 5.06326,8.83801 0.69581,1.00601 1.54377,2.4891 1.54377,2.70006 0,0.29704 -0.46152,0.0617 -1.41935,-0.72367 z m -30.57457,-24.27592 c -2.0488,-1.91687 -3.06353,-3.36717 -4.00854,-5.72912 -0.40203,-1.00487 -0.55663,-1.64818 -0.63214,-2.63051 -0.15423,-2.0065 -0.74293,-2.67012 -2.284703,-2.57546 -0.57043,0.035 -0.96332,0.15678 -1.29343,0.40084 -0.4065,0.30054 -0.54387,0.32923 -0.96316,0.20116 -0.40008,-0.1222 -0.58961,-0.0948 -1.04203,0.15035 -0.50062,0.27132 -0.61012,0.28087 -1.1558,0.10078 -0.52722,-0.174 -0.66803,-0.16783 -1.12309,0.0492 -0.71026,0.3387 -0.82772,0.31871 -1.30183,-0.2216 -0.35398,-0.4034 -0.44126,-0.44009 -0.61833,-0.25994 -0.26004,0.26458 -2.15496,3.64927 -2.15496,3.84918 0,0.0816 -0.0668,0.14831 -0.14854,0.14831 -0.29936,0 -0.12779,-0.46596 0.83066,-2.25601 1.28745,-2.4045 1.51836,-2.57911 2.30173,-1.7405 l 0.42936,0.45963 0.69007,-0.33406 c 0.66648,-0.32264 0.70631,-0.32532 1.16472,-0.0785 0.45808,0.24669 0.49368,0.24439 1.01955,-0.0659 0.45459,-0.26822 0.61944,-0.29552 0.99469,-0.1647 0.37942,0.13226 0.55721,0.0997 1.13631,-0.20823 0.88116,-0.46852 2.09821,-0.49924 2.791973,-0.0705 0.64197,0.39676 0.94574,1.1521 1.10662,2.7517 0.19969,1.98541 1.16827,4.23471 2.65391,6.16312 0.28322,0.36763 1.12468,1.25038 1.8699,1.96167 0.74523,0.7113 1.28123,1.29616 1.19111,1.29971 -0.0901,0.004 -0.74443,-0.53676 -1.45405,-1.20068 z"
       id="path1" /></g></svg>
