<?xml version="1.0" encoding="UTF-8" standalone="no"?>
<!-- Created with Inkscape (http://www.inkscape.org/) -->

<svg
   width="54.270618mm"
   height="62.264225mm"
   viewBox="0 0 54.270618 62.264225"
   version="1.1"
   id="svg1"
   xml:space="preserve"
   xmlns="http://www.w3.org/2000/svg"
   xmlns:svg="http://www.w3.org/2000/svg"><defs
     id="defs1" /><g
     id="layer1"
     transform="translate(-78.46321,-92.15249)"><path
       style="fill:#e4a600"
       d="m 105.61387,154.34678 c -1.75102,-0.23949 -4.40404,-1.27224 -5.58793,-2.17524 -0.500592,-0.38181 -0.575912,-0.39725 -1.144672,-0.23452 -2.09526,0.59948 -2.42188,0.65259 -3.54234,0.57607 -1.33827,-0.0914 -2.62236,-0.62513 -3.643191,-1.51429 -1.17228,-1.02106 -1.339431,-1.93847 -0.528729,-2.90194 0.516746,-0.61412 0.602297,-0.46576 0.131486,0.22802 -0.605959,0.89293 -0.520227,1.43776 0.361361,2.29646 0.407026,0.39645 1.125573,0.91014 1.596783,1.14152 0.79833,0.39202 0.97824,0.4204 2.63919,0.41634 1.50524,-0.004 1.89219,-0.0544 2.48801,-0.32586 0.6986,-0.31833 0.85567,-0.52497 0.54498,-0.71699 -0.0883,-0.0546 -0.28222,-0.29928 -0.43091,-0.54377 -0.38971,-0.64083 -0.16902,-1.27724 1.09818,-3.1667 0.617412,-0.9206 1.252062,-2.51963 1.071642,-2.70006 -0.10061,-0.1006 -1.362762,0.7114 -2.717272,1.74814 -1.2226,0.93579 -2.56599,1.38354 -4.13416,1.37791 -0.65357,-0.002 -1.486929,-0.0879 -1.851915,-0.19019 -0.466041,-0.13057 -0.679547,-0.13812 -0.717137,-0.0254 -0.07808,0.23425 -1.888721,0.75951 -2.618144,0.75951 -2.509782,0 -5.955291,-1.41971 -7.714175,-3.17859 -1.462598,-1.4626 -2.550901,-3.82589 -2.444541,-5.3084 l 0.0465,-0.6481 1.48538,-0.0878 c 0.816959,-0.0483 1.847669,-0.19845 2.290466,-0.33371 0.442797,-0.13525 0.832864,-0.21814 0.866815,-0.18419 0.220862,0.22086 -2.013741,0.82142 -3.083012,0.82857 -0.966775,0.006 -1.096683,0.12814 -0.903347,0.84614 0.249379,0.92612 1.713019,3.15998 2.626694,4.00894 0.904575,0.84052 2.643626,1.81318 3.905177,2.1842 1.063147,0.31267 3.0128,0.47081 3.366203,0.27304 0.244375,-0.13676 0.213675,-0.17899 -0.280134,-0.38532 -0.908056,-0.37941 -2.750413,-1.72868 -3.445712,-2.52352 -0.840584,-0.96091 -1.553257,-2.42117 -1.700852,-3.48503 -0.147121,-1.06043 0.05925,-3.37084 0.370594,-4.14897 0.129761,-0.3243 0.398978,-0.6769 0.598261,-0.78355 0.439618,-0.23528 0.689156,-0.1389 2.295865,0.8867 0.612719,0.39111 1.537046,0.92415 2.05406,1.18453 1.091212,0.54957 3.669584,1.43669 4.609844,1.58607 0.62875,0.0999 0.64301,0.0934 0.47752,-0.21579 -0.0938,-0.17531 -0.26577,-0.31875 -0.3821,-0.31875 -0.35722,0 -2.664713,-1.25023 -4.226642,-2.29005 -2.602656,-1.73265 -4.043775,-3.44148 -5.518601,-6.54375 -1.055923,-2.22112 -1.586719,-4.63892 -1.64771,-7.50538 -0.01761,-0.8278 0.05501,-1.73283 0.175688,-2.1894 0.187457,-0.70922 0.250149,-0.78663 0.706416,-0.87222 1.552293,-0.29121 4.066854,0.52499 6.11495,1.98487 1.138814,0.81174 3.058484,2.73409 3.374379,3.37909 0.1857,0.37916 0.14667,0.35701 -0.26171,-0.14854 -2.023783,-2.5053 -5.247514,-4.70651 -7.194785,-4.9127 -1.066525,-0.11293 -1.286249,0.10106 -0.646791,0.62993 0.870418,0.71989 3.063358,2.81997 3.647112,3.49267 0.306198,0.35286 -0.140985,-0.0302 -0.99374,-0.85136 -2.266432,-2.18231 -3.073689,-2.88973 -3.289422,-2.88262 -0.105619,0.003 0.108754,0.28146 0.476386,0.61771 0.594833,0.54407 0.607098,0.56707 0.111403,0.20892 -0.619314,-0.44748 -0.659186,-0.42163 -0.330396,0.21418 0.353742,0.68406 0.143268,0.51432 -0.299871,-0.24184 -0.219206,-0.37405 -0.423359,-0.65528 -0.453674,-0.62497 -0.03032,0.0303 0.04638,0.4438 0.170432,0.91885 0.124053,0.47505 0.196146,0.89313 0.160207,0.92907 -0.03594,0.0359 -0.190293,-0.42242 -0.343009,-1.01859 l -0.277666,-1.08393 -0.05184,0.9655 c -0.03693,0.68779 -0.08733,0.88005 -0.175232,0.66842 -0.209079,-0.50336 -0.164665,1.04142 0.07581,2.63678 0.539934,3.58203 2.148957,6.55276 5.236241,9.66763 1.204182,1.21494 2.869643,2.48739 3.543359,2.70721 0.221785,0.0724 0.202652,0.0226 -0.08741,-0.2272 l -0.371345,-0.31985 0.496553,0.2427 c 0.747368,0.3653 0.753598,0.1369 0.01407,-0.51506 -0.362536,-0.3196 -0.926524,-0.82513 -1.253308,-1.12339 l -0.594152,-0.5423 0.830457,0.60662 c 0.456751,0.33365 0.868256,0.60663 0.914456,0.60663 0.207272,0 -0.120609,-0.66195 -0.557157,-1.12482 -0.450474,-0.47764 -0.516101,-0.72958 -0.08425,-0.32343 0.372,0.34986 0.02564,-0.66158 -0.470501,-1.37398 -0.379509,-0.54492 -0.401412,-0.61353 -0.118541,-0.37134 l 0.346979,0.29707 -0.08917,-0.37134 c -0.04904,-0.20424 -0.134487,-0.9764 -0.189871,-1.71591 -0.179991,-2.40329 0.292874,-3.2845 2.767026,-5.15651 1.24328,-0.94069 1.39058,-0.92542 1.53444,0.15904 0.0517,0.38958 0.20393,0.86534 0.33834,1.05723 l 0.24438,0.3489 0.20508,-0.3914 c 0.27434,-0.52361 0.42321,-0.49442 0.84437,0.16561 0.19549,0.30636 0.51383,0.70042 0.70742,0.8757 0.41539,0.37608 4.068942,2.87488 4.203432,2.87488 0.0508,0 -0.01,-0.1972 -0.13418,-0.43823 -0.3082,-0.596 -0.28475,-0.70534 0.0609,-0.28378 0.2611,0.31848 0.30919,0.32936 0.52392,0.11852 0.21375,-0.20988 0.21466,-0.28421 0.01,-0.77505 -0.31725,-0.75927 -0.27124,-0.88423 0.0803,-0.21824 0.46869,0.88782 0.89369,0.70786 0.78927,-0.33421 l -0.0521,-0.51988 0.16772,0.48274 c 0.18124,0.52165 0.55635,0.63479 0.86632,0.26129 0.12358,-0.14889 0.15141,-0.45307 0.085,-0.92836 -0.23356,-1.67052 -0.24163,-1.7809 -0.0987,-1.34967 0.0724,0.21834 0.17943,0.80929 0.23792,1.31321 l 0.10633,0.91621 0.4666,-0.0803 c 0.25663,-0.0442 0.7841,-0.12466 1.17215,-0.17891 0.38806,-0.0542 0.70587,-0.10775 0.70625,-0.1189 0.005,-0.14626 0.73593,-1.75233 0.73847,-1.62255 0.002,0.0991 -0.1307,0.52073 -0.29477,0.93696 l -0.2983,0.75679 0.62619,-0.0457 c 0.60539,-0.0442 0.63212,-0.0679 0.80486,-0.71416 l 0.17867,-0.66842 -0.0238,0.74269 c -0.0236,0.7354 -0.0191,0.74315 0.46021,0.78933 0.39045,0.0376 0.51066,-0.0198 0.62187,-0.29708 0.13027,-0.32481 0.13837,-0.31868 0.14727,0.11153 0.008,0.37294 0.10671,0.50163 0.54768,0.71192 0.29605,0.14117 0.55741,0.23711 0.58081,0.21318 0.0234,-0.0239 0.1146,-0.27745 0.2027,-0.56338 l 0.16018,-0.51989 -0.0816,0.5693 c -0.0804,0.56128 0.21385,1.28743 0.52177,1.28743 0.0731,0 0.24827,-0.30228 0.38936,-0.67173 0.34276,-0.89751 0.41564,-0.76913 0.10854,0.19119 -0.20046,0.62687 -0.21207,0.83814 -0.0639,1.16332 0.1736,0.38101 0.18975,0.38583 0.39311,0.11722 0.31786,-0.41983 0.26414,-0.14651 -0.0888,0.4516 -0.17065,0.28924 -0.28259,0.60896 -0.24874,0.71049 0.0771,0.23143 0.79058,-0.97183 1.17306,-1.97846 0.5287,-1.39142 0.74637,-2.81144 0.77163,-5.03392 0.0271,-2.38116 -0.20005,-3.61427 -1.09132,-5.9254 -0.42172,-1.09355 -2.75657,-4.88177 -2.91265,-4.72569 -0.0374,0.0374 0.10284,0.45417 0.3116,0.92621 0.20876,0.47205 0.35474,0.88308 0.3244,0.91342 -0.0303,0.0303 -0.23377,-0.35667 -0.45207,-0.86002 -0.42178,-0.97254 -0.62801,-1.11798 -0.38531,-0.27171 0.0803,0.27998 0.14003,0.60977 0.13272,0.73285 -0.007,0.12308 -0.0986,-0.0855 -0.20276,-0.46352 -0.27177,-0.98579 -0.4159,-1.17765 -0.54263,-0.72231 -0.0923,0.33172 -0.10574,0.31626 -0.13011,-0.15003 l -0.0272,-0.51989 -0.34987,0.74269 c -0.38917,0.82613 -0.49319,0.80973 -0.14529,-0.0229 0.31442,-0.75252 0.29053,-0.76637 -0.33104,-0.1919 -0.30462,0.28154 -0.42758,0.36109 -0.27323,0.17677 0.92976,-1.11034 -1.29045,0.32639 -2.81326,1.8205 -0.58286,0.57187 -1.24515,1.28834 -1.47176,1.59216 l -0.41202,0.5524 0.70031,1.74994 c 0.38517,0.96247 0.87486,2.45179 1.08821,3.30959 0.44465,1.78775 0.43807,1.77208 0.6221,1.48108 0.18505,-0.29261 0.18306,0.0274 -0.003,0.5174 -0.16149,0.42475 -0.0294,2.1947 0.15527,2.08057 0.064,-0.0396 0.16497,-0.2884 0.22436,-0.55297 0.0594,-0.26458 0.13589,-0.40064 0.17001,-0.30237 0.0341,0.0983 -0.0803,0.49932 -0.2543,0.89123 -0.41198,0.92801 -0.52789,0.70757 -0.64875,-1.23386 -0.15447,-2.4814 -0.83112,-4.75093 -2.3647,-7.93137 -0.62675,-1.29978 -0.93959,-1.7481 -1.87762,-2.69073 -1.025672,-1.03071 -2.939492,-2.45187 -3.093902,-2.29746 -0.0349,0.0349 0.21948,0.55323 0.56528,1.15185 1.05991,1.8348 0.92691,1.7265 -0.36435,-0.29667 -0.4002,-0.62705 -0.75182,-1.07115 -0.78138,-0.98688 -0.0296,0.0843 0.14713,0.74746 0.39265,1.47378 0.24551,0.72632 0.42418,1.34279 0.39704,1.36993 -0.0271,0.0271 -0.30649,-0.65278 -0.62078,-1.51092 -0.3143,-0.85815 -0.62595,-1.56027 -0.69257,-1.56027 -0.0666,0 -0.13236,0.38434 -0.14609,0.8541 l -0.025,0.85409 -0.09,-0.89123 c -0.0889,-0.8802 -0.0926,-0.88612 -0.29787,-0.47853 -0.12113,0.2405 -0.24898,0.34614 -0.30643,0.2532 -0.18382,-0.29743 -1.41117,1.84527 -1.95646,3.41556 -0.89009,2.56325 -1.11356,6.13048 -0.48642,7.76478 0.0548,0.14279 0.0323,0.25961 -0.05,0.25961 -0.27318,0 -0.54408,-1.53996 -0.52425,-2.98015 0.0366,-2.65764 0.73927,-5.30814 1.98403,-7.48369 0.72298,-1.26361 1.55282,-2.31043 1.83155,-2.31043 0.32961,0 3.709332,2.42669 4.548632,3.26599 0.45539,0.45539 1.04834,1.21844 1.31767,1.69567 0.26933,0.47722 0.53831,0.80937 0.59772,0.7381 1.8528,-2.22237 2.64057,-2.91955 4.86666,-4.30701 l 1.1096,-0.69158 0.52426,0.50351 c 0.70264,0.67482 2.43813,3.28147 3.09747,4.6523 0.29276,0.60867 0.71308,1.81248 0.93405,2.67514 0.22097,0.86266 0.43545,1.56526 0.47663,1.56133 0.0412,-0.004 0.30881,-0.37895 0.59475,-0.83339 0.71182,-1.13132 1.93932,-1.97158 4.58227,-3.1367 2.96369,-1.30651 2.88677,-1.30036 3.27539,-0.26168 0.61148,1.63431 1.17052,3.73599 1.35593,5.09757 0.18473,1.35646 0.13119,6.15301 -0.0977,8.75484 l -0.0944,1.07256 0.87375,-0.30781 c 1.59198,-0.56084 5.97006,-0.52666 7.73198,0.0604 l 0.56866,0.18946 -0.0246,0.90825 c -0.0628,2.31606 -2.40328,5.81032 -4.78316,7.14122 -1.20128,0.6718 -3.66657,1.69771 -5.31365,2.21125 l -1.24271,0.38745 0.87047,0.93055 c 1.43607,1.53515 2.54691,3.6518 2.54691,4.85296 0,1.06075 -2.34071,2.60103 -4.90175,3.22553 -2.25454,0.54976 -5.56529,0.77704 -6.87857,0.47221 -0.48913,-0.11354 -0.71397,-0.0628 -1.6608,0.37464 -1.78715,0.82572 -4.00447,1.19768 -5.73148,0.96148 z m 1.0237,-0.56517 c -0.0284,-0.2456 -0.15016,-0.42677 -0.30694,-0.4565 -0.20187,-0.0383 -0.25994,0.0527 -0.25994,0.40721 0,0.36237 0.0633,0.4565 0.30694,0.4565 0.24702,0 0.29776,-0.0795 0.25994,-0.40721 z m 0.76768,0.14727 c -0.003,-0.37721 -0.23528,-0.6856 -0.42673,-0.56728 -0.18128,0.11204 -0.22298,0.57133 -0.0661,0.7282 0.1935,0.1935 0.49509,0.095 0.49285,-0.16092 z m 0.73974,-0.0274 c 0.24019,-0.4488 0.18431,-0.60392 -0.21758,-0.60392 -0.29,0 -0.37134,0.0759 -0.37134,0.34659 0,0.59069 0.33271,0.73607 0.58892,0.25733 z m -2.37138,-0.23257 c 0,-0.29708 -0.0743,-0.37135 -0.37134,-0.37135 -0.26107,0 -0.37135,0.0809 -0.37135,0.27232 0,0.34435 0.12602,0.47037 0.47037,0.47037 0.19145,0 0.27232,-0.11027 0.27232,-0.37134 z m 3.20858,-0.007 c 0.11064,-0.44083 0.0153,-0.58487 -0.30568,-0.46171 -0.2984,0.11451 -0.30637,0.83997 -0.009,0.83997 0.12099,0 0.2627,-0.17021 0.31491,-0.37826 z m -4.09981,-0.14162 c 0,-0.23106 -0.0842,-0.37134 -0.2228,-0.37134 -0.13864,0 -0.22281,0.14028 -0.22281,0.37134 0,0.23106 0.0842,0.37135 0.22281,0.37135 0.13863,0 0.2228,-0.14029 0.2228,-0.37135 z m 4.81354,0.0324 c 0.11052,-0.17521 0.10657,-0.29625 -0.0136,-0.4164 -0.24123,-0.24123 -0.49236,-0.0346 -0.49236,0.40516 0,0.40959 0.25115,0.41517 0.50594,0.0112 z m -5.43449,-0.14227 c -0.0568,-0.39844 -0.49155,-0.5247 -0.62341,-0.18107 -0.1254,0.32679 0.0101,0.51377 0.37223,0.51377 0.2244,0 0.28684,-0.0827 0.25118,-0.3327 z m 6.2654,-0.27757 c 0,-0.48095 -0.51018,-0.2886 -0.56796,0.21414 -0.0439,0.38184 -0.0212,0.40392 0.25995,0.25344 0.1694,-0.0907 0.30801,-0.30107 0.30801,-0.46758 z m -7.15663,0.12904 c -0.0261,-0.18298 -0.16444,-0.35499 -0.30741,-0.38224 -0.29796,-0.0568 -0.34779,0.27059 -0.0817,0.53668 0.2766,0.27661 0.44128,0.21124 0.3891,-0.15444 z m 8.04785,-0.51818 c 0,-0.42071 -0.51894,-0.12029 -0.57026,0.33013 -0.0501,0.43972 -0.0486,0.44063 0.25994,0.16138 0.17068,-0.15446 0.31032,-0.37564 0.31032,-0.49151 z m -8.79054,0.2211 c -0.0261,-0.18298 -0.16444,-0.35499 -0.30741,-0.38224 -0.29796,-0.0568 -0.34779,0.27059 -0.0817,0.53669 0.2766,0.2766 0.44128,0.21124 0.3891,-0.15445 z m -0.88695,-0.5756 c -0.29272,-0.1855 -0.42309,-0.15964 -0.42309,0.084 0,0.32647 0.50624,0.57119 0.57163,0.27634 0.0285,-0.12835 -0.0384,-0.29048 -0.14854,-0.36029 z m 8.2498,0.2478 c 0.78794,-0.19987 1.78243,-0.55079 2.20998,-0.77982 0.8952,-0.47953 2.14728,-1.68593 2.27407,-2.1911 0.11717,-0.46687 -0.40792,-1.45955 -1.01259,-1.91427 -0.47218,-0.35509 -3.4177,-1.88122 -3.63086,-1.88122 -0.0589,0 0.15396,0.26737 0.47306,0.59415 0.8136,0.83321 0.53645,0.74083 -0.44561,-0.14853 -1.18141,-1.06989 -1.4607,-1.00321 -0.65521,0.15641 0.45566,0.65598 0.45377,0.65505 -0.2734,-0.13473 -0.45308,-0.49207 -0.82855,-0.77523 -0.98485,-0.74269 -0.22035,0.0459 -0.19887,0.13796 0.16816,0.72101 0.86345,1.37163 1.099,1.78245 1.02198,1.78245 -0.0435,0 -0.52185,-0.635 -1.06296,-1.41111 -0.54111,-0.77611 -1.04569,-1.41111 -1.12129,-1.41111 -0.1676,0 -0.16764,-0.029 7.1e-4,0.558 0.18554,0.64695 0.0804,0.60721 -0.28418,-0.10742 -0.25359,-0.49709 -0.67316,-0.89619 -0.94214,-0.89619 -0.0374,0 0.0919,0.51802 0.28729,1.15117 0.51377,1.66509 0.36355,1.63086 -0.24907,-0.0568 -0.74321,-2.04738 -1.17854,-2.06246 -0.64994,-0.0225 0.33069,1.27617 0.18062,1.2065 -0.23146,-0.10746 -0.4995,-1.59271 -0.78291,-1.45072 -0.66534,0.33333 0.053,0.8039 0.0388,0.90072 -0.0708,0.48469 -0.0753,-0.28593 -0.17743,-0.77054 -0.22688,-1.0769 -0.0683,-0.42302 -0.15975,-0.55702 -0.38025,-0.55702 -0.26223,0 -0.29324,0.11869 -0.32024,1.22544 l -0.0299,1.22544 -0.0488,-1.1883 c -0.0367,-0.89309 -0.11011,-1.23443 -0.29557,-1.37398 -0.55613,-0.41843 -0.63551,-0.25207 -0.63788,1.33684 -0.001,0.83739 -0.0671,1.62278 -0.14627,1.74532 -0.0973,0.15058 -0.14472,-0.36709 -0.14626,-1.59678 -0.001,-1.00077 -0.0608,-1.81959 -0.13225,-1.81959 -0.15041,0 -0.31462,0.71924 -0.31791,1.39254 -0.001,0.2553 -0.0562,0.54912 -0.12208,0.65294 -0.0659,0.10381 -0.0904,-0.37196 -0.0544,-1.05726 0.0712,-1.35706 -0.16297,-1.90117 -0.34571,-0.80318 -0.17009,1.02194 -0.6316,2.10406 -1.398192,3.27835 -0.39476,0.60472 -0.76073,1.2349 -0.81325,1.4004 -0.17222,0.5426 0.24841,1.10831 1.367022,1.83855 1.93969,1.26624 3.6961,1.73355 6.5858,1.75222 1.52755,0.01 2.14017,-0.0552 3.30743,-0.35131 z m 2.09694,0.0654 c 0.31186,-0.3446 0.17914,-0.584 -0.19362,-0.34926 -0.27623,0.17395 -0.43159,0.64725 -0.21246,0.64725 0.075,0 0.25776,-0.1341 0.40608,-0.29799 z m 4.08397,0.17014 1.26257,-0.0984 -1.85672,-0.12139 c -1.0212,-0.0668 -2.05073,-0.13284 -2.28784,-0.14683 -0.23711,-0.014 -0.45831,0.0533 -0.49155,0.1495 -0.10554,0.30548 1.17837,0.3881 3.37354,0.21708 z m -15.00234,-0.54057 c 0,-0.12255 -0.0279,-0.22281 -0.0621,-0.22281 -0.0342,0 -0.17563,-0.0436 -0.31435,-0.0968 -0.21778,-0.0836 -0.22887,-0.0531 -0.0812,0.2228 0.19715,0.36838 0.45766,0.42348 0.45766,0.0968 z m 11.73451,-0.31461 c 0,-0.12255 -0.0668,-0.1815 -0.14854,-0.13101 -0.0817,0.0505 -0.14854,0.19207 -0.14854,0.31461 0,0.12254 0.0668,0.1815 0.14854,0.13101 0.0817,-0.0505 0.14854,-0.19207 0.14854,-0.31461 z m 7.62076,-0.3369 c 3.0306,-0.79774 3.96531,-1.41047 3.96508,-2.59923 -2.2e-4,-1.13006 -1.46959,-3.67927 -2.82829,-4.90677 -0.59523,-0.53776 -0.6628,-0.5614 -1.3133,-0.45946 -0.37718,0.0591 -1.45446,0.18566 -2.39396,0.28125 -1.4503,0.14755 -1.66334,0.20114 -1.41111,0.35496 0.26036,0.15878 0.21993,0.17667 -0.32709,0.14471 -0.8882,-0.0519 -0.84122,0.20586 0.10757,0.59025 1.01722,0.41212 0.77905,0.43863 -0.37464,0.0417 -1.02815,-0.35374 -1.12094,-0.35912 -1.49359,-0.0866 -0.26787,0.19587 -0.20153,0.25217 0.95763,0.81273 0.68499,0.33125 1.28633,0.6432 1.33631,0.69322 0.13952,0.13961 -1.38349,-0.47987 -2.21216,-0.89979 -0.67583,-0.34247 -0.77797,-0.35673 -1.22247,-0.17072 l -0.48501,0.20298 1.2997,0.60574 c 0.71484,0.33315 1.29971,0.64263 1.29971,0.68773 0,0.0451 -0.38434,-0.0899 -0.85409,-0.30008 -1.57889,-0.7063 -2.27388,-0.95107 -2.67919,-0.94357 -0.31755,0.006 -0.13534,0.14921 0.8596,0.67613 1.44047,0.76287 1.35389,0.76147 -0.4978,-0.008 -0.72311,-0.30052 -1.33744,-0.52371 -1.36516,-0.49599 -0.0277,0.0277 1.07438,0.65039 2.44912,1.38369 1.37474,0.7333 2.48313,1.35167 2.46309,1.37414 -0.02,0.0225 -0.35224,-0.0945 -0.73821,-0.25994 -0.38596,-0.16544 -0.72855,-0.30081 -0.76131,-0.30081 -0.0327,0 0.0552,0.24056 0.19538,0.53458 0.16689,0.34997 0.48665,0.66003 0.92596,0.89786 0.47949,0.25958 0.55837,0.34037 0.27635,0.28301 -0.21707,-0.0441 -0.50606,-0.123 -0.64219,-0.17524 -0.20521,-0.0788 -0.23931,-0.0111 -0.19947,0.39554 0.04,0.40821 0.13527,0.52184 0.56792,0.6772 0.60135,0.21593 0.29785,0.27396 -0.39443,0.0754 -0.3118,-0.0894 -0.52104,-0.0796 -0.63031,0.0297 -0.33834,0.33835 -0.14567,0.53219 0.69053,0.69468 0.46975,0.0913 0.98778,0.23178 1.15117,0.3122 0.17937,0.0883 0.19616,0.11763 0.0424,0.074 -0.67323,-0.19081 -2.45803,-0.26266 -2.55676,-0.10292 -0.21324,0.34504 0.60753,0.46348 2.81147,0.40573 1.89824,-0.0497 2.48766,-0.12672 3.98159,-0.51996 z m -20.26122,-0.026 c -0.287892,-0.17792 -0.358182,-0.0384 -0.12328,0.24461 0.14326,0.17262 0.21893,0.19014 0.26208,0.0607 0.0334,-0.1001 -0.0291,-0.23748 -0.1388,-0.30529 z m 13.53168,-0.47288 c 0,-0.0829 -0.0985,-0.0668 -0.2228,0.0364 -0.12255,0.1017 -0.22281,0.25176 -0.22281,0.33345 0,0.0829 0.0985,0.0668 0.22281,-0.0364 0.12254,-0.10171 0.2228,-0.25176 0.2228,-0.33345 z m -14.111112,0.18491 c 0,-0.0817 -0.0708,-0.14854 -0.1573,-0.14854 -0.0865,0 -0.116,0.0668 -0.0655,0.14854 0.0505,0.0817 0.12128,0.14854 0.1573,0.14854 0.036,0 0.0655,-0.0668 0.0655,-0.14854 z m -10.100583,-3.39494 c 0,-0.0699 -0.484605,-0.16381 -1.076901,-0.20869 -1.846711,-0.13992 -3.975996,-1.04347 -6.040459,-2.56324 -0.512911,-0.37759 -0.962811,-0.65627 -0.999778,-0.61931 -0.03697,0.037 0.387292,0.447 0.942798,0.91118 1.183792,0.98917 2.96096,1.89594 4.51165,2.30198 1.14177,0.29897 2.66269,0.40069 2.66269,0.17808 z m 1.371152,-0.54132 c -0.0723,-0.26877 -0.823965,-0.37821 -2.830517,-0.41214 -1.716124,-0.029 -1.918128,-0.009 -1.519501,0.15386 1.040715,0.42405 4.449053,0.62642 4.350018,0.25828 z m 2.045221,0.0544 c 0,-0.46264 -0.38346,-1.35272 -0.6425,-1.49135 -0.273288,-0.14626 -0.287074,-0.11944 -0.203459,0.39581 0.09689,0.59708 0.466669,1.26398 0.700849,1.26398 0.0798,0 0.14511,-0.0758 0.14511,-0.16844 z m 0.77742,-0.38858 c -0.36249,-0.78401 -0.77742,-1.05236 -0.77742,-0.50278 0,0.35319 0.55028,1.0598 0.82534,1.0598 0.17195,0 0.16334,-0.1001 -0.0479,-0.55702 z m 1.21828,0.42395 c 0.11617,-0.18795 -0.37205,-0.71373 -0.77026,-0.82953 -0.41643,-0.12109 -0.42499,0.0644 -0.0264,0.57122 0.31062,0.3949 0.64516,0.50337 0.79662,0.25831 z m -3.02357,-1.05244 c -0.153566,-0.561 -0.368081,-0.98173 -0.574145,-1.12606 -0.403798,-0.28283 -0.407166,-0.19027 -0.03269,0.89817 0.526693,1.53086 1.013545,1.71369 0.606835,0.22789 z m -7.487247,0.69403 c -0.149192,-0.0973 -0.668411,-0.43361 -1.153819,-0.74732 -1.229137,-0.79437 -2.357959,-1.86029 -3.263147,-3.08132 -0.832031,-1.12235 -1.080349,-1.25577 -0.605747,-0.32547 0.750216,1.47054 2.193175,2.83041 4.086079,3.85079 0.87004,0.46899 1.50673,0.67518 0.936634,0.30332 z m 11.188807,-0.10267 c -0.1337,-0.24982 -0.59416,-0.43191 -0.59416,-0.23496 0,0.27035 0.22957,0.53203 0.46674,0.53203 0.24038,0 0.26085,-0.0477 0.12742,-0.29707 z m -4.307607,0.0288 c 0,-0.36779 -0.678895,-2.0839 -0.936909,-2.36832 -0.62899,-0.69337 -0.709161,-0.2916 -0.242988,1.21769 0.219516,0.71071 0.39717,1.02597 0.631287,1.12027 0.422627,0.17022 0.54861,0.17719 0.54861,0.0304 z m 5.013227,-0.066 c -0.034,-0.10212 -0.18784,-0.21009 -0.34186,-0.23994 -0.24228,-0.0469 -0.25319,-0.0219 -0.0809,0.18568 0.23561,0.28389 0.51099,0.31924 0.42277,0.0543 z m 0.40841,-0.25994 c -0.0505,-0.0817 -0.15864,-0.14854 -0.24034,-0.14854 -0.0817,0 -0.10723,0.0668 -0.0567,0.14854 0.0505,0.0817 0.15864,0.14854 0.24034,0.14854 0.0817,0 0.10723,-0.0668 0.0567,-0.14854 z m -6.682643,-0.25994 c -0.05747,-0.14297 -0.214658,-0.78337 -0.349312,-1.42312 -0.170056,-0.80795 -0.367973,-1.30695 -0.648059,-1.63392 -0.392671,-0.45841 -0.403392,-0.46149 -0.40927,-0.11778 -0.0033,0.19413 0.133247,0.94623 0.303484,1.67135 0.222804,0.94902 0.398524,1.38073 0.627203,1.5409 0.42203,0.2956 0.604065,0.28128 0.475954,-0.0374 z m 7.202523,0.1114 c 0,-0.0817 -0.0668,-0.14854 -0.14853,-0.14854 -0.0817,0 -0.14854,0.0668 -0.14854,0.14854 0,0.0817 0.0668,0.14854 0.14854,0.14854 0.0817,0 0.14853,-0.0668 0.14853,-0.14854 z m -0.55006,-0.36972 c 1.30924,-0.34102 3.966442,-1.79228 3.966442,-2.16633 0,-0.06 -0.34248,0.021 -0.761072,0.18009 -0.41859,0.15905 -0.79028,0.25997 -0.82598,0.22427 -0.0357,-0.0357 0.24303,-0.18252 0.61942,-0.32627 0.444152,-0.16962 0.633552,-0.31214 0.539632,-0.40605 -0.0939,-0.0939 -0.540732,-2.7e-4 -1.273022,0.26681 -0.62058,0.22634 -1.16175,0.3781 -1.20259,0.33726 -0.0409,-0.0409 0.32839,-0.22108 0.82052,-0.40052 0.95963,-0.3499 1.07457,-0.5007 0.5824,-0.7641 -0.25309,-0.13545 -0.47157,-0.0962 -1.15117,0.20686 -0.76606,0.34162 -3.25969,0.92058 -3.39259,0.78768 -0.0308,-0.0308 0.56456,-0.20057 1.32313,-0.37716 0.75857,-0.17659 1.68,-0.45747 2.04763,-0.62418 0.62403,-0.28297 0.64985,-0.31678 0.3888,-0.50904 -0.23679,-0.17438 -0.33965,-0.17489 -0.67142,-0.003 -0.41693,0.21561 -1.94369,0.53572 -2.45548,0.51484 -0.16881,-0.007 0.25828,-0.14001 0.94909,-0.29583 1.40221,-0.31628 1.86433,-0.60116 1.38839,-0.85588 -0.18004,-0.0964 -0.50434,-0.1063 -0.87143,-0.0267 -0.32157,0.0697 -1.25309,0.16056 -2.07005,0.20189 -1.48353,0.0751 -1.48399,0.075 -0.37135,-0.0689 0.61272,-0.0792 1.38141,-0.17636 1.70819,-0.2158 1.4705,-0.17748 1.22144,-0.65636 -0.34298,-0.65947 -0.79243,-0.002 -1.07414,-0.0464 -0.91959,-0.14626 0.12254,-0.0792 0.50688,-0.14502 0.85409,-0.14627 0.34721,-0.001 0.63129,-0.0557 0.63129,-0.1211 0,-0.33036 -0.43675,-0.47532 -1.43206,-0.47532 -0.61357,0 -1.11838,-0.0693 -1.17525,-0.16131 -0.07,-0.11324 0.14871,-0.13027 0.73392,-0.0572 0.52262,0.0653 0.83362,0.0491 0.83362,-0.0433 0,-0.27719 -0.37187,-0.43882 -1.78246,-0.77474 -2.830318,-0.67401 -4.653145,-1.44436 -6.825427,-2.88451 -0.690392,-0.4577 -1.309471,-0.83219 -1.375732,-0.83219 -0.174008,0 0.02819,1.14508 0.347483,1.96786 0.841649,2.16883 1.968969,3.89826 3.612181,5.54148 2.797556,2.79755 5.108025,3.74969 7.553425,3.11275 z m -7.679961,-0.18729 c -0.164505,-0.53151 -0.533718,-2.44464 -0.533718,-2.76554 0,-0.18281 -0.215286,-0.62512 -0.478414,-0.98292 -0.46538,-0.63281 -0.481164,-0.64069 -0.579346,-0.2892 -0.05551,0.19874 -0.107594,1.04412 -0.115738,1.87863 -0.0136,1.39405 0.01036,1.53075 0.294992,1.68309 0.170388,0.0912 0.334425,0.14117 0.364526,0.11107 0.0301,-0.0301 -0.0077,-0.48671 -0.084,-1.01467 -0.132991,-0.92021 -0.177555,-2.01263 -0.06946,-1.70263 0.02849,0.0817 0.13152,0.74145 0.228961,1.46613 0.123092,0.91544 0.262378,1.4028 0.45636,1.59678 0.350878,0.35088 0.621605,0.36098 0.515838,0.0193 z m 23.749563,-0.93825 c 1.06789,-0.71371 2.84376,-3.79256 3.37577,-5.85262 0.23723,-0.9186 0.26078,-0.95849 0.19539,-0.33091 -0.14934,1.43324 -1.51744,4.23795 -2.74937,5.63639 -0.34185,0.38806 -0.54755,0.70556 -0.45712,0.70556 0.43044,0 2.06654,-0.89604 2.43444,-1.33327 1.22869,-1.46022 2.14092,-4.54487 1.99883,-6.75892 -0.0574,-0.89423 -0.17761,-1.29012 -0.71517,-2.35501 -0.3554,-0.70404 -0.66593,-1.26033 -0.69005,-1.23621 -0.0241,0.0241 0.0555,0.56312 0.17691,1.19776 0.12143,0.63464 0.2079,1.66604 0.19216,2.29199 l -0.0286,1.1381 -0.0413,-0.96549 c -0.0506,-1.18343 -0.33309,-2.94458 -0.48761,-3.04008 -0.0625,-0.0387 -0.15574,0.42681 -0.20709,1.03436 -0.22242,2.63121 -0.99064,4.92781 -2.33077,6.96784 -0.83964,1.27816 -2.13601,2.52567 -3.04022,2.92565 -0.36769,0.16264 -0.66853,0.3344 -0.66853,0.38167 0,0.0473 0.56284,0.0564 1.25075,0.0203 1.00803,-0.0529 1.35571,-0.13579 1.79159,-0.4271 z m -2.20493,-0.29696 c 1.25828,-0.60052 2.42853,-1.9946 3.54545,-4.22357 0.91783,-1.83166 1.16768,-2.68012 1.41454,-4.8035 0.27514,-2.36671 0.14785,-2.40043 -0.65127,-0.17252 -1.91238,5.3316 -3.3864,7.9118 -5.18334,9.07322 -0.79994,0.51703 -0.85444,0.58175 -0.48981,0.58175 0.22565,0 0.83965,-0.20492 1.36443,-0.45538 z M 87.207648,143.9767 c 7.1e-4,-0.63314 0.04275,-1.5188 0.09341,-1.96813 0.06334,-0.56171 0.04408,-0.77055 -0.06166,-0.66842 -0.235447,0.22741 -0.775731,2.1182 -0.775731,2.71477 0,0.495 0.332445,1.07295 0.617173,1.07295 0.06903,0 0.126098,-0.51802 0.126808,-1.15117 z m 21.716192,0.99654 c 1.26384,-0.35101 2.82803,-2.30181 4.20039,-5.23857 0.65772,-1.40748 2.21452,-5.73795 2.10292,-5.84956 -0.1487,-0.14869 -1.73563,2.52417 -2.7947,4.70709 -1.3909,2.86689 -2.80964,5.08058 -3.80029,5.92969 -0.72511,0.62151 -0.66362,0.71666 0.29168,0.45135 z m -0.6845,-0.41403 c 1.32402,-0.96021 1.8826,-1.80811 3.99567,-6.06522 1.67534,-3.37523 1.71189,-3.61853 0.29556,-1.96736 -0.82032,0.95634 -1.44789,2.06159 -2.31146,4.07083 -1.0189,2.37064 -1.59107,3.1747 -2.81158,3.95106 l -0.66842,0.42517 0.46046,0.003 c 0.27339,0.002 0.69582,-0.16786 1.03977,-0.4173 z m -6.07063,-1.39009 c -1.4732,-1.89102 -3.605032,-5.31961 -3.307642,-5.31961 0.0406,0 0.21801,0.28408 0.39433,0.63129 0.875952,1.72492 4.059562,6.05292 4.452442,6.05292 0.47825,0 -0.57004,-2.41182 -2.95078,-6.78891 -2.217212,-4.07643 -2.854082,-5.44593 -3.821212,-8.21691 -0.38426,-1.10098 -0.73446,-2.0352 -0.77821,-2.07605 -0.0438,-0.0408 -0.0427,0.42705 0.002,1.03976 0.14712,1.99963 1.46809,6.76701 2.3588,8.51294 0.1618,0.31717 0.26599,0.60488 0.23151,0.63935 -0.11217,0.11218 -1.10312,-2.20549 -1.64994,-3.85896 -0.29352,-0.88753 -0.66534,-2.32463 -0.82628,-3.19356 -0.16093,-0.86894 -0.32475,-1.74699 -0.36403,-1.95123 -0.0393,-0.20424 -0.0462,0.3305 -0.0154,1.18831 0.0898,2.49905 1.27624,6.84594 2.62488,9.61739 0.58276,1.19759 0.98369,1.78076 1.880652,2.7355 1.16104,1.23582 2.53405,2.41894 2.66047,2.29252 0.0385,-0.0385 -0.36296,-0.62561 -0.89205,-1.30475 z m 1.89551,-2.15489 c -0.24629,-1.31437 -0.78449,-2.81495 -1.57657,-4.39576 -0.39668,-0.79167 -4.245732,-6.71601 -5.521302,-8.4982 -0.41058,-0.57366 -0.42153,-0.57878 -0.31746,-0.14854 0.20087,0.83039 1.55452,4.42355 2.12554,5.64207 0.31234,0.66651 1.313562,2.55847 2.224932,4.20435 1.5596,2.81652 2.28278,4.30603 2.93597,6.04715 l 0.27863,0.74269 0.0436,-1.16451 c 0.024,-0.64049 -0.063,-1.73365 -0.19336,-2.42925 z m 3.85832,2.91397 c 0.86244,-0.79497 1.45681,-1.74215 2.10327,-3.35175 0.95518,-2.37827 1.47996,-3.20289 3.40277,-5.34704 1.01037,-1.12668 1.80994,-2.07561 1.77682,-2.10873 -0.14932,-0.14932 -2.07732,1.4178 -3.11621,2.53291 -2.25875,2.4245 -3.64144,4.53574 -4.67604,7.13993 -0.217,0.5462 -0.53603,1.01968 -0.87575,1.29971 l -0.5344,0.44049 h 0.63131 c 0.53206,0 0.7346,-0.0952 1.28823,-0.60552 z m -21.548656,-0.58333 c 0.126879,-0.53065 0.329473,-1.28232 0.450208,-1.67038 0.120734,-0.38805 0.15869,-0.70555 0.08435,-0.70555 -0.198715,0 -0.818836,1.14463 -1.111356,2.05136 -0.24161,0.74892 -0.241251,0.80339 0.0071,1.07781 0.143861,0.15896 0.278992,0.2716 0.300291,0.2503 0.0213,-0.0213 0.142535,-0.47289 0.269415,-1.00354 z m 18.803596,-0.58414 c 0.43402,-2.04521 -0.17139,-4.86197 -1.58878,-7.39207 -0.37541,-0.67012 -1.33655,-1.97354 -2.13586,-2.89649 -1.825612,-2.10799 -4.204522,-4.59655 -4.018042,-4.20323 0.0775,0.16339 1.06908,1.70076 2.20358,3.41637 1.134512,1.71562 2.309552,3.52731 2.611202,4.02599 1.26548,2.09207 2.41892,5.9643 2.30959,7.75358 -0.0453,0.74165 -0.0343,0.77058 0.18904,0.49441 0.13044,-0.16133 0.32361,-0.70069 0.42927,-1.19856 z m 1.29942,1.15003 c 0.10704,-0.0888 0.14757,-0.30298 0.0961,-0.50794 -0.0727,-0.28952 -0.0316,-0.35435 0.22424,-0.35435 0.18526,0 0.31318,-0.095 0.31318,-0.23267 0,-0.16549 -0.11613,-0.2191 -0.40216,-0.18568 -0.43843,0.0512 -1.45425,1.21829 -1.29072,1.48288 0.10157,0.16434 0.7718,0.0364 1.05933,-0.20224 z m -5.64261,-1.00054 c -1.297192,-1.37892 -2.030502,-2.44044 -2.706602,-3.91796 -1.17916,-2.57692 -2.26343,-6.63744 -2.46294,-9.22364 -0.075,-0.97248 -0.1707,-1.80244 -0.2126,-1.84434 -0.17361,-0.17361 -0.0594,3.59588 0.1444,4.76436 0.27073,1.55246 1.52404,5.45975 2.20337,6.86919 0.80987,1.68026 3.264052,4.53041 3.901012,4.53041 0.1502,0 -0.17757,-0.44553 -0.86664,-1.17802 z m 5.46494,-0.93251 c 0.13449,-0.43378 0.27772,-1.55139 0.31964,-2.49415 0.0731,-1.64334 0.058,-1.75742 -0.39764,-3.00496 -0.77936,-2.13401 -2.07543,-3.86502 -4.0868,-5.45825 -1.15539,-0.91519 -3.944242,-2.82568 -4.124822,-2.82568 -0.0769,0 0.54665,0.71855 1.38573,1.59678 3.326432,3.48163 4.546562,5.29144 5.582822,8.281 0.64964,1.87417 0.74622,3.86859 0.26035,5.37641 -0.0537,0.16674 0.0843,0.0879 0.36533,-0.20858 0.24843,-0.26214 0.56135,-0.8303 0.69539,-1.26257 z m -20.52416,0.56282 c 0.133164,-0.40191 0.218672,-0.75419 0.190017,-0.78284 -0.08462,-0.0846 -0.838262,1.11752 -0.838262,1.33711 0,0.26538 0.176647,0.43379 0.304565,0.29036 0.05586,-0.0626 0.210515,-0.44272 0.34368,-0.84463 z m 13.533958,-0.38722 c -1.20393,-1.49122 -1.80891,-2.68672 -2.73597,-5.40649 -0.8547,-2.50747 -1.30223,-4.45217 -1.44445,-6.27673 -0.0918,-1.17802 -0.11612,-1.25758 -0.2412,-0.79004 -0.17854,0.66732 -0.0506,2.44149 0.33204,4.60468 0.47223,2.66962 0.98547,4.40383 1.78416,6.02856 0.72276,1.47026 0.75803,1.51242 1.89388,2.26411 0.63657,0.42128 1.206162,0.76645 1.265752,0.76705 0.0596,6e-4 -0.324812,-0.53541 -0.854212,-1.19114 z m 19.904082,0.89582 c 4.22125,-0.86856 7.06273,-2.01143 9.15526,-3.68232 1.74807,-1.39585 3.05946,-2.94121 3.60609,-4.24948 0.33051,-0.79103 0.29638,-0.83726 -0.18747,-0.25385 -0.32844,0.39601 -0.41381,0.44218 -0.39705,0.2147 0.0117,-0.15939 0.20182,-0.5264 0.42239,-0.81558 0.51131,-0.67036 0.50892,-0.81636 -0.007,-0.45466 -0.22467,0.15737 -0.57559,0.36693 -0.77983,0.4657 l -0.37134,0.17956 0.37134,-0.30459 c 0.20424,-0.16752 0.49443,-0.34556 0.64487,-0.39563 0.17997,-0.0599 0.24823,-0.18776 0.19958,-0.3738 -0.0407,-0.15552 0.003,-0.28937 0.0978,-0.29744 0.0945,-0.008 -0.12902,-0.11131 -0.49665,-0.2294 -0.98907,-0.31771 -3.43473,-0.47863 -5.12457,-0.33718 -1.38315,0.11577 -1.5876,0.17691 -2.97076,0.88842 -1.62337,0.83507 -2.57004,1.4809 -3.28819,2.24323 -0.41664,0.44228 -0.47351,0.61256 -0.53724,1.60868 -0.0611,0.95553 -0.32195,1.97125 -0.77236,3.00789 -0.0846,0.19473 -0.0437,0.26008 0.1629,0.2605 0.2058,4.1e-4 0.16108,0.0705 -0.17614,0.27617 -0.46709,0.28484 -1.04272,1.02605 -0.90432,1.16445 0.0432,0.0432 0.29333,0.004 0.55583,-0.0878 0.26251,-0.0915 0.50313,-0.14054 0.53471,-0.10896 0.0316,0.0316 -0.28777,0.18154 -0.70966,0.33325 -0.65547,0.23571 -1.44408,0.87988 -1.27911,1.04484 0.0286,0.0286 0.44104,-0.0819 0.91656,-0.24548 1.18655,-0.40824 1.38983,-0.35596 0.29819,0.0767 -1.10166,0.43661 -0.82757,0.45568 1.03658,0.0721 z m 6.16752,-2.43264 c 0,-0.0471 0.18904,-0.1833 0.4201,-0.30278 0.23106,-0.11949 0.97288,-0.6271 1.64849,-1.12804 0.67561,-0.50093 1.25158,-0.8876 1.27992,-0.85925 0.067,0.067 -1.93301,1.53966 -2.73119,2.01104 -0.33953,0.20051 -0.61732,0.32608 -0.61732,0.27903 z m 3.78772,-2.91539 c 0.0505,-0.0817 0.15864,-0.14854 0.24034,-0.14854 0.0817,0 0.10722,0.0669 0.0567,0.14854 -0.0505,0.0817 -0.15864,0.14854 -0.24034,0.14854 -0.0817,0 -0.10722,-0.0668 -0.0567,-0.14854 z m 1.36269,-1.4814 c 0.30333,-0.40629 0.57947,-0.71074 0.61365,-0.67656 0.0624,0.0624 -0.99476,1.41527 -1.10589,1.41527 -0.0326,0 0.18892,-0.33242 0.49224,-0.73871 z m -0.24866,-0.52386 c 0.19187,-0.20424 0.38228,-0.37135 0.42313,-0.37135 0.0409,0 -0.0827,0.16711 -0.27459,0.37135 -0.19187,0.20424 -0.38228,0.37134 -0.42313,0.37134 -0.0408,0 0.0827,-0.1671 0.27459,-0.37134 z m -0.58177,-0.72257 c 0.034,-0.0298 0.22899,-0.13373 0.43323,-0.231 0.35015,-0.16676 0.35489,-0.16367 0.083,0.0541 -0.23662,0.18957 -0.72009,0.35519 -0.51625,0.17685 z m -8.40478,7.99648 c 0.49018,-0.10902 1.45798,-0.39912 2.15068,-0.64465 0.6927,-0.24553 1.28133,-0.42454 1.30806,-0.39781 0.0267,0.0267 -0.42304,0.23365 -0.99951,0.45982 -1.07603,0.42217 -1.36332,0.6221 -0.63964,0.44514 0.73959,-0.18084 4.25541,-1.74416 5.01593,-2.23034 1.39378,-0.891 2.49403,-2.1338 3.55434,-4.01484 0.54257,-0.96255 0.28228,-0.70834 -0.93718,0.91527 -0.54231,0.72204 -1.06956,1.32115 -1.17168,1.33136 -0.10212,0.0102 -0.24311,0.0269 -0.3133,0.0371 -0.23449,0.0341 -1.50857,1.23156 -1.43575,1.34938 0.0829,0.13417 -1.35809,1.04982 -2.20535,1.40133 -0.89695,0.37212 -0.84735,0.26853 0.10727,-0.22404 0.47792,-0.2466 0.83549,-0.48183 0.79459,-0.52272 -0.0409,-0.0409 -0.3985,0.089 -0.79468,0.28866 -1.21748,0.61357 -3.60139,1.44921 -5.01357,1.75742 -0.73895,0.16128 -1.37869,0.32877 -1.42164,0.3722 -0.0909,0.0919 0.73332,-0.0413 2.00143,-0.32332 z m 6.99839,-3.06583 c 0.23568,-0.17728 0.59978,-0.46136 0.80911,-0.63129 0.20932,-0.16992 0.0859,-0.0249 -0.27432,0.32233 -0.36019,0.34721 -0.72429,0.63129 -0.8091,0.63129 -0.0848,0 0.0386,-0.14505 0.27431,-0.32233 z m -11.00891,2.30009 c 1.11657,-1.58036 1.26257,-1.94374 1.26257,-3.14233 0,-1.30847 -0.30656,-2.57896 -0.91138,-3.77711 -0.2445,-0.48434 -0.3838,-0.84309 -0.30957,-0.79721 0.48739,0.30122 1.50574,3.19574 1.53014,4.34922 l 0.0121,0.57271 0.21781,-0.49916 c 0.2698,-0.6183 0.42598,-2.17977 0.29035,-2.90278 -0.0558,-0.29737 -0.31537,-0.78511 -0.57686,-1.08387 -0.53314,-0.60914 -2.1859,-1.87427 -2.29977,-1.7604 -0.0406,0.0406 0.10633,0.30996 0.32649,0.5986 0.22015,0.28864 0.36929,0.57494 0.33141,0.63622 -0.0379,0.0613 0.0904,0.57892 0.28502,1.1503 0.23875,0.70089 0.35449,1.37713 0.35576,2.07863 0.002,1.30389 -0.43647,3.44878 -0.9345,4.56755 -0.20911,0.46975 -0.33375,0.8533 -0.27698,0.85233 0.0568,-9.7e-4 0.3706,-0.38018 0.69739,-0.8427 z m -31.625303,-0.36624 c 1.026262,-1.28548 1.027992,-1.28816 0.907083,-1.40907 -0.233507,-0.23351 -1.885879,1.73134 -1.885879,2.24251 0,0.25764 0.336447,-0.0288 0.978796,-0.83344 z m 0.03582,-1.04824 c 0.996114,-1.07457 0.660741,-1.19887 -0.39261,-0.14552 -0.68813,0.68813 -0.917897,1.02172 -0.914374,1.32756 l 0.0047,0.40848 0.32702,-0.44561 c 0.179861,-0.24509 0.618727,-0.7603 0.975258,-1.14491 z m 0.272354,-1.40536 c -0.158746,-0.15875 -1.031858,0.34664 -1.585243,0.91758 -0.364245,0.37581 -0.449532,0.5656 -0.368661,0.8204 0.09808,0.30902 0.171625,0.26508 1.084753,-0.64805 0.538747,-0.53875 0.929865,-1.02922 0.869151,-1.08993 z m 21.412549,1.32331 c 0.036,-0.25269 -0.0265,-0.33269 -0.25994,-0.33269 -0.23121,0 -0.30741,0.0947 -0.30741,0.38223 0,0.48755 0.49691,0.44416 0.56735,-0.0495 z m -10.647782,-0.29556 c -0.64528,-1.27027 -1.42559,-4.33304 -1.9584,-7.68684 -0.16783,-1.05645 -0.27454,-1.45018 -0.30194,-1.11404 -0.0233,0.28594 -0.0806,-0.0149 -0.12723,-0.66842 l -0.0849,-1.1883 -0.27,0.81696 c -0.38765,1.17291 -0.48663,3.54129 -0.19897,4.76066 0.25058,1.06221 0.83631,2.72116 0.92829,2.62918 0.0317,-0.0317 -0.0416,-0.62114 -0.16284,-1.30996 -0.12122,-0.68882 -0.21117,-1.75371 -0.19989,-2.36643 l 0.0205,-1.11404 0.11309,1.26258 c 0.26579,2.9673 0.77866,4.69371 1.70993,5.75584 0.37606,0.42891 0.71334,0.77983 0.74951,0.77983 0.0362,0 -0.0616,-0.25066 -0.21719,-0.55702 z m 11.565812,-0.26871 c 0,-0.2451 -0.23476,-0.28651 -0.37135,-0.0655 -0.12113,0.196 0.0565,0.47414 0.23308,0.365 0.076,-0.047 0.13827,-0.18177 0.13827,-0.2995 z m -23.086108,-0.78183 c 0.333138,-0.22145 0.578226,-0.48509 0.544639,-0.58585 -0.09769,-0.29308 -0.360005,-0.21796 -1.189464,0.34063 -0.598701,0.40319 -0.777842,0.6113 -0.777842,0.90362 v 0.37978 l 0.40848,-0.31777 c 0.224664,-0.17477 0.681048,-0.49896 1.014187,-0.72041 z m 22.464108,0.13146 c 0.0371,-0.1114 -0.0186,-0.1671 -0.12997,-0.12997 -0.10723,0.0357 -0.2242,0.15272 -0.25995,0.25994 -0.0371,0.11141 0.0186,0.16711 0.12998,0.12997 0.10722,-0.0357 0.22419,-0.15271 0.25994,-0.25994 z m -13.104422,-1.38745 c -1.0845,-2.1344 -1.17427,-2.68509 -1.10382,-6.77172 0.0324,-1.8816 0.008,-3.34091 -0.0543,-3.24291 -0.1796,0.28253 -0.13404,-0.0368 0.17509,-1.22727 0.29363,-1.13074 0.29231,-1.57995 -0.002,-0.80609 -0.87358,2.29421 -1.326477,4.52114 -1.433226,7.04725 -0.07588,1.79556 -0.05334,2.08526 0.208176,2.67648 0.3409,0.77066 1.07882,1.97371 1.16052,1.89202 0.0308,-0.0308 -0.11445,-0.88937 -0.32279,-1.9079 -0.34178,-1.67083 -0.37087,-2.07694 -0.29756,-4.15421 0.0447,-1.26628 0.14745,-2.53628 0.22836,-2.82222 0.11585,-0.40938 0.12544,-0.31467 0.0451,0.44561 -0.0561,0.53103 -0.0986,1.93471 -0.0944,3.1193 0.0115,3.28661 0.64333,5.84374 1.67904,6.79562 0.2889,0.26551 0.53935,0.48275 0.55657,0.48275 0.0172,0 -0.31778,-0.68702 -0.74443,-1.52671 z m 14.293772,0.96817 c 0.0357,-0.24999 -0.0268,-0.33269 -0.25118,-0.33269 -0.35552,0 -0.52427,0.22468 -0.40405,0.53797 0.12706,0.33111 0.59983,0.183 0.65523,-0.20528 z m -1.68773,0.12319 c 0.047,-0.0761 0.0175,-0.18026 -0.0655,-0.23158 -0.083,-0.0513 -0.15096,0.0109 -0.15096,0.13828 0,0.26091 0.0891,0.29932 0.21646,0.0933 z m -22.4914,-0.4878 c 0.422507,-0.26265 0.694952,-0.50196 0.605433,-0.5318 -0.215971,-0.072 -1.3898,0.58717 -1.46676,0.82366 -0.08804,0.27054 0.0101,0.23729 0.861327,-0.29186 z m 23.13646,0.002 c 0.2902,-0.29021 0.20411,-0.56444 -0.17721,-0.56444 -0.4018,0 -0.59697,0.325 -0.34592,0.57605 0.21145,0.21145 0.30208,0.20943 0.52313,-0.0116 z m -22.548074,-1.03367 c 0,-0.21916 -0.504121,-0.13343 -1.002632,0.17052 -0.265512,0.16189 -0.482749,0.39976 -0.482749,0.5286 0,0.19066 0.138228,0.15903 0.742691,-0.16996 0.408479,-0.22232 0.74269,-0.46044 0.74269,-0.52916 z m 23.679574,0.42227 c 0.34885,-0.25508 0.2474,-0.75718 -0.1649,-0.81615 -0.41888,-0.0599 -0.74656,0.48125 -0.4834,0.79833 0.21837,0.26313 0.30941,0.26563 0.6483,0.0178 z m -16.104132,-0.25012 c -0.12255,-0.0792 -0.28965,-0.14399 -0.37135,-0.14399 -0.0817,0 -0.0483,0.0648 0.0743,0.14399 0.12254,0.0792 0.28965,0.14399 0.37135,0.14399 0.0817,0 0.0483,-0.0648 -0.0743,-0.14399 z m -7.741513,-0.67565 c 0.0396,-0.0396 -0.0095,-0.15345 -0.109024,-0.25301 -0.23175,-0.23175 -0.96083,0.14299 -1.035824,0.5324 -0.04738,0.24602 -0.01629,0.24768 0.511202,0.0273 0.308908,-0.12907 0.594049,-0.26707 0.633646,-0.30667 z m 8.001613,0.34144 c -0.0339,-0.10212 -0.56375,-0.45304 -1.177329,-0.77983 -0.613585,-0.32678 -1.343352,-0.75642 -1.621706,-0.95476 -1.737253,-1.23784 -3.846721,-3.49984 -5.29505,-5.67793 -0.373251,-0.56131 -0.711635,-0.98758 -0.751964,-0.94725 -0.128745,0.12875 1.337792,2.42185 2.36592,3.69939 1.383752,1.71945 3.040359,3.06784 5.247342,4.27108 1.126757,0.6143 1.328797,0.67811 1.232787,0.3893 z m 14.715642,-0.22443 c 0.044,-0.31025 0.0186,-0.32257 -0.33421,-0.16183 -0.47928,0.21838 -0.51364,0.61131 -0.0477,0.54513 0.21535,-0.0306 0.35117,-0.16691 0.38189,-0.3833 z m 2.22496,-0.21376 c 0.27828,-0.27828 0.21692,-0.71298 -0.10064,-0.71298 -0.35638,0 -0.67118,0.37512 -0.55935,0.66653 0.10355,0.26985 0.41469,0.29175 0.65999,0.0465 z m 0.7724,-0.42467 c 0,-0.0769 -0.0668,-0.13977 -0.14854,-0.13977 -0.0817,0 -0.14854,0.10421 -0.14854,0.23157 0,0.12737 0.0668,0.19026 0.14854,0.13977 0.0817,-0.0505 0.14854,-0.1547 0.14854,-0.23157 z m -26.059683,-0.0555 c 0.216815,-0.16003 0.246234,-0.25555 0.118606,-0.38511 -0.215317,-0.21858 -0.795771,0.0588 -0.795771,0.38033 0,0.27674 0.305762,0.2789 0.677165,0.005 z m 5.858507,0.15045 c 0,-0.0343 -0.484605,-0.41314 -1.0769,-0.84188 -2.053512,-1.48648 -3.816836,-3.60505 -5.317574,-6.38887 -0.833722,-1.54654 -0.862685,-1.26639 -0.0447,0.4324 1.296244,2.69204 2.972504,4.62205 5.453472,6.27898 0.861606,0.57544 0.985705,0.64082 0.985705,0.51937 z m 16.448866,-2.19787 c -0.0301,-0.43164 -0.055,-0.11638 -0.0554,0.70057 -3.9e-4,0.81696 0.0242,1.17013 0.0547,0.78481 0.0305,-0.38532 0.0308,-1.05374 7e-4,-1.48538 z m 0.93008,0.5608 c 0,-0.87369 -0.0649,-1.59097 -0.14853,-1.64268 -0.0956,-0.0591 -0.14854,0.49358 -0.14854,1.55088 0,0.9961 0.0585,1.64269 0.14854,1.64269 0.0895,0 0.14853,-0.61599 0.14853,-1.55089 z m -0.44561,-0.009 c 0,-0.84172 -0.0599,-1.41111 -0.14854,-1.41111 -0.16505,0 -0.21161,2.56109 -0.0495,2.72319 0.18512,0.18512 0.19805,0.0994 0.19805,-1.31208 z m 1.83068,1.16483 c 0.0538,-0.0538 0.0305,-0.17871 -0.0516,-0.27767 -0.0821,-0.099 -0.20657,-0.67327 -0.27652,-1.27624 l -0.12718,-1.0963 -0.0193,1.37397 c -0.0148,1.05559 0.0266,1.37398 0.17878,1.37398 0.10893,0 0.24203,-0.044 0.29579,-0.0977 z m -0.93945,-1.46191 c 0,-0.84172 -0.0599,-1.41111 -0.14854,-1.41111 -0.0886,0 -0.14854,0.56939 -0.14854,1.41111 0,0.84172 0.0599,1.41111 0.14854,1.41111 0.0886,0 0.14854,-0.56939 0.14854,-1.41111 z m 2.90449,1.24963 c 0.0549,-0.0888 0.0326,-0.22869 -0.0496,-0.31084 -0.18436,-0.18435 -0.82646,0.121 -0.69653,0.33124 0.11885,0.19229 0.62315,0.17851 0.74608,-0.0204 z m -1.02476,-0.21582 c 0.13818,-0.36009 -0.0546,-0.4251 -0.23901,-0.0806 -0.11496,0.21481 -0.11722,0.30979 -0.007,0.30979 0.0871,0 0.19801,-0.10314 0.24638,-0.22921 z m -25.497281,-0.0679 c 0,-0.0817 -0.02948,-0.14854 -0.0655,-0.14854 -0.03603,0 -0.106814,0.0668 -0.157304,0.14854 -0.05049,0.0817 -0.02102,0.14854 0.0655,0.14854 0.08652,0 0.157305,-0.0669 0.157304,-0.14854 z m 25.075071,-0.13926 c 0.0371,-0.1114 -0.0186,-0.1671 -0.12997,-0.12997 -0.10722,0.0357 -0.2242,0.15272 -0.25994,0.25994 -0.0371,0.11141 0.0186,0.16711 0.12997,0.12997 0.10723,-0.0357 0.2242,-0.15271 0.25994,-0.25994 z m 10.25774,-0.52995 c 0.49256,-0.56099 1.51205,-2.58928 1.97369,-3.92668 0.15676,-0.45416 0.4298,-1.66128 0.60673,-2.68248 0.41498,-2.39504 0.45566,-6.81513 0.0764,-8.2961 -0.1329,-0.51891 -0.2794,-0.98123 -0.32556,-1.02738 -0.0461,-0.0462 -0.0851,0.44524 -0.0865,1.092 -0.003,1.40694 -0.23674,3.75191 -0.4544,4.56024 -0.2455,0.91171 -0.27658,0.58453 -0.0534,-0.56209 0.215,-1.10458 0.26599,-5.22055 0.0727,-5.86725 -0.0894,-0.29922 -0.13161,-0.19823 -0.21714,0.51988 -0.16344,1.37228 -0.20046,1.42229 -0.21991,0.29708 l -0.018,-1.03977 -0.38316,0.44562 -0.38317,0.44561 0.32175,-0.55702 c 0.37567,-0.65036 0.25366,-0.70125 -0.44517,-0.18567 -0.65239,0.48132 -0.88015,0.47975 -0.34249,-0.002 l 0.41676,-0.37371 -0.81696,0.30981 c -2.96717,1.1252 -4.47176,2.16575 -5.3967,3.73227 -0.48652,0.82399 -0.50058,0.89546 -0.59926,3.04503 -0.0556,1.21068 -0.19975,2.66911 -0.32038,3.24095 -0.12063,0.57184 -0.21933,1.05645 -0.21933,1.0769 0,0.16858 0.76629,-0.0446 1.52675,-0.4248 1.27782,-0.63881 1.84925,-1.09795 2.35086,-1.8889 0.35602,-0.56138 0.42999,-0.83762 0.42999,-1.60568 0,-2.07096 0.62819,-0.68715 0.91953,2.02558 0.12813,1.19313 0.12342,2.16228 -0.0201,4.12403 l -0.18756,2.56437 0.53527,0.59249 c 0.2944,0.32586 0.53528,0.65913 0.53528,0.74059 0,0.28345 0.26917,0.14483 0.72345,-0.37256 z m 0.85417,-12.8796 c 0.19435,-0.66851 0.36247,-1.38601 0.3736,-1.59444 0.0181,-0.3387 0.027,-0.34427 0.0836,-0.0523 0.0688,0.35448 -0.51079,2.67698 -0.6967,2.79188 -0.0626,0.0387 0.0451,-0.47658 0.2395,-1.14509 z m -0.98347,-2.19622 c 0.0874,-0.16339 0.19241,-0.29708 0.23326,-0.29708 0.0409,0 0.003,0.13369 -0.0847,0.29708 -0.0875,0.16339 -0.19242,0.29707 -0.23326,0.29707 -0.0409,0 -0.003,-0.13368 0.0847,-0.29707 z m -13.70639,14.22517 c -0.0331,-0.26697 -0.0608,-0.0844 -0.0616,0.40582 -8.3e-4,0.49018 0.0262,0.70861 0.0601,0.48541 0.0339,-0.2232 0.0346,-0.62425 0.002,-0.89123 z m 4.20972,0.92048 c 0.4059,-0.21723 0.35649,-0.54107 -0.0957,-0.62752 -0.40905,-0.0782 -0.60593,0.16374 -0.45446,0.55848 0.10128,0.26393 0.16995,0.27254 0.5502,0.069 z m 1.29737,-0.0245 c 0.27689,-0.2769 0.21235,-0.41591 -0.1931,-0.41591 -0.27232,0 -0.37134,0.0792 -0.37134,0.29708 0,0.33088 0.2911,0.39217 0.56444,0.11883 z m -2.38723,-1.56708 c -0.032,-0.30636 -0.0583,-0.0557 -0.0583,0.55702 0,0.61272 0.0262,0.86338 0.0583,0.55702 0.0321,-0.30636 0.0321,-0.80768 0,-1.11404 z m 11.85624,0.54322 c 0.13067,-0.25268 0.20415,-0.49284 0.1633,-0.53369 -0.0687,-0.0687 -0.54178,0.72729 -0.54178,0.91146 0,0.20371 0.16076,0.0433 0.37848,-0.37777 z m -11.3703,-0.44058 c 0,-0.46315 -0.057,-0.71624 -0.14853,-0.65966 -0.0817,0.0505 -0.14854,0.38865 -0.14854,0.75146 0,0.36281 0.0668,0.65966 0.14854,0.65966 0.0817,0 0.14853,-0.33816 0.14853,-0.75146 z m 2.02965,0.51866 c 0.15514,-0.40428 -0.20027,-0.5984 -0.53725,-0.29343 -0.1634,0.14787 -0.2613,0.32676 -0.21755,0.39754 0.13345,0.21593 0.65985,0.14333 0.7548,-0.10411 z m -20.020321,-1.34923 c 0.03104,-1.08907 0.602349,-4.09361 1.059319,-5.57102 0.53247,-1.72153 0.54527,-1.9067 0.0685,-0.99122 -0.984796,1.89107 -1.85297,4.72538 -1.85297,6.04934 0,0.41364 0.115325,1.0375 0.256278,1.38636 l 0.256277,0.6343 0.09749,-0.44562 c 0.05362,-0.24509 0.105402,-0.72305 0.115068,-1.06214 z m 14.081621,0.96002 c -0.0474,-0.11849 -0.0826,-0.0833 -0.0897,0.0897 -0.006,0.15659 0.0287,0.24432 0.078,0.19496 0.0494,-0.0494 0.0546,-0.17747 0.0117,-0.2847 z m 7.14235,-1.28274 c -0.0462,-0.35203 -0.0983,-0.29759 -0.45443,0.47498 -0.52642,1.14192 -0.50908,1.32473 0.0522,0.54994 0.30497,-0.421 0.43727,-0.75809 0.40225,-1.02492 z m 8.86961,1.26166 c 0.5007,-0.76416 1.22955,-4.05116 1.33562,-6.02337 l 0.0688,-1.28033 -0.22364,0.9655 c -0.12301,0.53102 -0.36265,1.6005 -0.53255,2.37661 -0.28895,1.32001 -0.86831,3.459 -1.09632,4.04766 -0.14835,0.383 0.18231,0.31948 0.44804,-0.0861 z m -11.21168,-0.41376 c 0,-0.19951 -0.16977,-0.15829 -0.47105,0.11437 -0.39971,0.36174 -0.33057,0.54232 0.0997,0.2604 0.20424,-0.13383 0.37135,-0.30247 0.37135,-0.37477 z m 2.19939,0.23596 c -0.0457,-0.0457 -0.12879,0.0367 -0.18457,0.18319 -0.0806,0.2117 -0.0636,0.22876 0.0832,0.0832 0.10151,-0.10075 0.14715,-0.22061 0.10142,-0.26634 z m 1.65226,-0.50854 c 0.60704,-0.40398 1.17519,-0.69296 1.26258,-0.64218 0.0874,0.0508 0.53955,0.34807 1.00482,0.66063 0.46526,0.31256 0.90632,0.56829 0.98012,0.56829 0.15188,0 0.48109,-2.14147 0.46812,-3.04503 -0.008,-0.58407 -0.0136,-0.57814 -0.30721,0.34903 -0.37015,1.16893 -0.47759,1.13908 -0.19135,-0.0532 0.22411,-0.93351 0.46664,-3.92213 0.30643,-3.77606 -0.0511,0.0466 -0.26028,0.74447 -0.46483,1.55086 -0.20456,0.80638 -0.43139,1.52562 -0.50408,1.59831 -0.0727,0.0727 0.0268,-0.52494 0.22115,-1.32805 0.44148,-1.8246 0.4397,-1.98314 -0.01,-0.88942 -0.32329,0.78627 -0.73401,1.47192 -0.45888,0.76605 0.0637,-0.16339 0.20954,-0.59686 0.32414,-0.96326 l 0.20835,-0.66618 -0.70896,0.69676 c -0.6285,0.6177 -2.66647,1.74964 -3.15009,1.74964 -0.0944,0 -0.16085,0.3744 -0.16465,0.92836 -0.004,0.5106 -0.0439,1.44639 -0.0898,2.07953 -0.0459,0.63315 -0.0263,1.151 0.0435,1.1508 0.0698,-2.1e-4 0.62357,-0.33091 1.23061,-0.7349 z m -3.10647,0.20884 c 0.079,-0.20784 0.18872,-0.55876 0.24377,-0.77983 0.0901,-0.36198 0.0755,-0.38167 -0.14735,-0.19806 -0.13609,0.11212 -0.24786,0.27922 -0.24836,0.37134 -5e-4,0.0921 -0.0968,0.3513 -0.214,0.57597 -0.18608,0.35672 -0.1855,0.40848 0.005,0.40848 0.11972,0 0.28233,-0.17006 0.36135,-0.3779 z m 11.75219,-0.82802 c 0.052,-0.35794 0.13297,-1.35265 0.18004,-2.21046 0.0676,-1.23175 0.0545,-1.41912 -0.0625,-0.89123 -0.0815,0.36763 -0.31345,1.40369 -0.51558,2.30234 -0.44534,1.98001 -0.44471,1.94587 -0.0306,1.67157 0.22662,-0.15013 0.36461,-0.4309 0.42865,-0.87222 z m -15.17105,0.60358 c 0.36763,-0.0791 0.83552,-0.17876 1.03976,-0.22152 1.14606,-0.23993 1.81873,-0.56539 2.09081,-1.0116 0.39698,-0.65103 0.35685,-1.14119 -0.15078,-1.84195 -0.30078,-0.41522 -0.75025,-0.75713 -1.44495,-1.09919 -0.93901,-0.46236 -1.12838,-0.50013 -2.75345,-0.54918 -1.45451,-0.0439 -1.91716,-4.1e-4 -2.77851,0.26122 -1.05425,0.32022 -2.27933,1.10887 -2.35814,1.51807 -0.0254,0.13216 0.42253,0.61756 1.07131,1.16079 0.61328,0.51351 1.28777,1.16009 1.49887,1.43686 l 0.38382,0.50322 1.36642,-0.006 c 0.75153,-0.004 1.66721,-0.0712 2.03484,-0.15025 z m -2.10924,-0.76421 c 0.13863,-0.13864 0.21785,-0.13864 0.35649,0 0.13864,0.13863 0.099,0.17824 -0.17825,0.17824 -0.27727,0 -0.31688,-0.0396 -0.17824,-0.17824 z m -1.60421,-0.18073 c 0,-0.12935 0.10583,-0.23518 0.23518,-0.23518 0.12936,0 0.20873,0.0794 0.17639,0.17639 -0.0918,0.27542 -0.41157,0.3211 -0.41157,0.0588 z m 3.59895,0.034 c 0.0918,-0.27542 0.41157,-0.3211 0.41157,-0.0588 0,0.12935 -0.10583,0.23518 -0.23518,0.23518 -0.12935,0 -0.20873,-0.0794 -0.17639,-0.17639 z m -4.49018,-0.71484 c 0,-0.0817 0.0668,-0.14853 0.14854,-0.14853 0.0817,0 0.14854,0.0668 0.14854,0.14853 0,0.0817 -0.0668,0.14854 -0.14854,0.14854 -0.0817,0 -0.14854,-0.0668 -0.14854,-0.14854 z m 2.59481,-0.007 c -0.14115,-0.22838 0.0522,-0.37573 0.24283,-0.18508 0.10668,0.10668 0.10924,0.18976 0.008,0.25246 -0.0832,0.0514 -0.19595,0.0211 -0.25062,-0.0674 z m 3.7259,0.0201 c -0.0478,-0.0774 -0.0236,-0.17983 0.0537,-0.22765 0.0774,-0.0478 0.17982,-0.0236 0.22765,0.0537 0.0478,0.0774 0.0236,0.17983 -0.0537,0.22765 -0.0774,0.0478 -0.17983,0.0236 -0.22765,-0.0537 z m -1.62944,-0.14129 c -0.064,-0.10353 -0.0762,-0.22835 -0.0272,-0.27738 0.13293,-0.13293 0.27788,0.0626 0.20608,0.27798 -0.0503,0.15094 -0.0853,0.15083 -0.17889,-6e-4 z m -3.51644,-0.33075 c -0.18009,-0.11596 -0.18009,-0.15363 0,-0.26959 0.22358,-0.14397 0.60763,-0.0588 0.60763,0.13479 0,0.19357 -0.38405,0.27877 -0.60763,0.1348 z m 5.11502,-0.51255 c -0.0484,-0.12607 -0.0507,-0.26644 -0.005,-0.31195 0.13008,-0.13007 0.39958,0.0906 0.39958,0.32712 0,0.28503 -0.28334,0.27413 -0.39436,-0.0152 z m -3.10239,-0.22628 c -0.0538,-0.0871 -0.0674,-0.18897 -0.03,-0.2263 0.1036,-0.10361 0.55602,0.1015 0.55602,0.25207 0,0.18594 -0.40749,0.16597 -0.52599,-0.0258 z m -3.71195,-0.14612 c -0.13643,-0.22074 -0.0279,-0.29889 0.21044,-0.15157 0.1277,0.0789 0.14289,0.15548 0.0431,0.21716 -0.0848,0.0524 -0.19887,0.0229 -0.25354,-0.0656 z m 5.80393,-0.42789 c -0.10146,-0.16417 0.13286,-0.34143 0.27002,-0.20427 0.14123,0.14122 0.1149,0.34255 -0.0448,0.34255 -0.0769,0 -0.17823,-0.0622 -0.22523,-0.13828 z m -4.68529,-0.23307 c 0,-0.12254 0.10027,-0.22281 0.22281,-0.22281 0.12254,0 0.22281,0.10027 0.22281,0.22281 0,0.12255 -0.10027,0.22281 -0.22281,0.22281 -0.12254,0 -0.22281,-0.10026 -0.22281,-0.22281 z m 3.2601,-0.009 c -0.17645,-0.21261 -0.16039,-0.23577 0.13213,-0.19062 0.18315,0.0283 0.33536,0.11657 0.33825,0.19623 0.009,0.25 -0.26091,0.24678 -0.47038,-0.006 z m -1.56539,-0.12078 c -0.12411,-0.32343 -0.0373,-0.4103 0.23935,-0.23935 0.16986,0.10498 0.17809,0.17345 0.0377,0.31384 -0.14039,0.14039 -0.20083,0.12414 -0.27705,-0.0745 z m 4.80383,3.62913 c 0.46953,-0.3917 0.41557,-0.5037 -0.1114,-0.23119 -0.24509,0.12674 -0.44562,0.29556 -0.44562,0.37516 0,0.21543 0.18285,0.16817 0.55702,-0.14397 z m 1.74349,-0.75107 c 0.54797,-1.32025 0.77519,-1.50248 0.30032,-0.24086 -0.45646,1.21272 -0.39171,1.45508 0.1179,0.4413 0.26605,-0.52926 0.3651,-0.97536 0.37341,-1.68177 0.0129,-1.09346 -0.0495,-1.0474 -0.6981,0.51583 -0.40052,0.96527 -0.74477,2.17576 -0.57027,2.00526 0.0418,-0.0408 0.25633,-0.50874 0.47674,-1.03976 z m -20.526166,-3.41638 c 0.282293,-0.77611 0.566194,-1.54479 0.630904,-1.70819 0.11649,-0.29418 0.11446,-0.29428 -0.208828,-0.0103 -0.179558,0.15772 -0.591944,0.81717 -0.916415,1.46544 -0.599901,1.19857 -0.745011,2.11889 -0.484889,3.07527 0.08374,0.30789 0.132183,0.21906 0.283485,-0.51988 0.100366,-0.49018 0.413451,-1.52623 0.695743,-2.30234 z m 2.158304,-0.44561 c -0.003,-0.92231 -0.0456,-1.28248 -0.12329,-1.03977 -0.16558,0.51702 -0.16558,3.13328 0,2.74795 0.0702,-0.16339 0.12569,-0.93207 0.12329,-1.70818 z m -2.886006,0.18567 c 0.198873,-0.38806 0.664552,-1.1378 1.034842,-1.6661 0.370294,-0.5283 0.641774,-0.99203 0.603294,-1.0305 -0.15495,-0.15495 -1.458227,1.29642 -1.787885,1.99104 -0.318693,0.67152 -0.467336,1.41111 -0.283605,1.41111 0.03947,0 0.234481,-0.3175 0.433354,-0.70555 z m -8.424705,-4.37259 c -0.04742,-0.11849 -0.08261,-0.0833 -0.08974,0.0897 -0.0065,0.15659 0.02866,0.24432 0.07802,0.19496 0.04936,-0.0494 0.05463,-0.17747 0.01173,-0.2847 z m 20.705583,1.27805 c 0.007,-0.17304 0.0423,-0.20824 0.0897,-0.0897 0.0429,0.10722 0.0376,0.23534 -0.0117,0.28469 -0.0494,0.0494 -0.0845,-0.0384 -0.078,-0.19495 z M 84.473257,124.6898 c -0.143588,-0.45551 -0.234333,-0.85494 -0.201654,-0.88762 0.03268,-0.0327 0.176896,0.31328 0.320485,0.76879 0.143588,0.45552 0.234333,0.85495 0.201654,0.88763 -0.03268,0.0327 -0.176896,-0.31328 -0.320485,-0.7688 z m 2.40575,-0.96589 c -0.465978,-0.72688 -0.8154,-1.32159 -0.776493,-1.32159 0.101571,0 1.739342,2.53388 1.676296,2.59348 -0.02891,0.0273 -0.433825,-0.54501 -0.899803,-1.27189 z m 16.381183,1.11691 c 0.007,-0.17304 0.0423,-0.20824 0.0897,-0.0897 0.0429,0.10723 0.0376,0.23534 -0.0117,0.2847 -0.0494,0.0494 -0.0845,-0.0384 -0.078,-0.19495 z m -17.910558,-1.54728 c -0.12674,-0.24508 -0.197015,-0.44561 -0.156167,-0.44561 0.04085,0 0.177965,0.20053 0.304705,0.44561 0.126739,0.24509 0.197015,0.44562 0.156167,0.44562 -0.04085,0 -0.177966,-0.20053 -0.304705,-0.44562 z m -1.326233,-0.0849 c -0.05464,-0.21769 -0.07069,-0.42444 -0.03568,-0.45945 0.03501,-0.035 0.10836,0.11444 0.162996,0.33213 0.05463,0.21768 0.07069,0.42443 0.03568,0.45945 -0.03501,0.035 -0.10836,-0.11445 -0.162996,-0.33213 z m 0.657812,-1.10343 c -0.166713,-0.32678 -0.269693,-0.59415 -0.228845,-0.59415 0.04085,0 0.21067,0.26737 0.377383,0.59415 0.166712,0.32678 0.269692,0.59415 0.228844,0.59415 -0.04085,0 -0.21067,-0.26737 -0.377382,-0.59415 z m -0.879502,0.21043 c 0.0071,-0.17304 0.04233,-0.20824 0.08974,-0.0897 0.04291,0.10722 0.03763,0.23534 -0.01173,0.28469 -0.04936,0.0494 -0.08447,-0.0384 -0.07802,-0.19495 z m 3.553186,-1.1912 c -0.285936,-0.20463 -1.004488,-0.60707 -1.596784,-0.89431 -1.254182,-0.60823 -1.44476,-0.80901 -0.278223,-0.29311 0.822367,0.36369 2.469159,1.36272 2.469159,1.49792 0,0.11033 -0.02265,0.0985 -0.594152,-0.3105 z m 12.031583,-4.3666 c -0.24744,-0.49017 -0.41647,-0.89123 -0.37563,-0.89123 0.0409,0 0.27672,0.40106 0.52416,0.89123 0.24744,0.49018 0.41647,0.89123 0.37563,0.89123 -0.0409,0 -0.27672,-0.40105 -0.52416,-0.89123 z m 7.735702,0.65604 c 0.007,-0.17303 0.0423,-0.20823 0.0897,-0.0897 0.0429,0.10723 0.0376,0.23534 -0.0117,0.2847 -0.0494,0.0494 -0.0845,-0.0384 -0.078,-0.19496 z m 2.52515,-1.48538 c 0.007,-0.17303 0.0423,-0.20823 0.0897,-0.0897 0.0429,0.10723 0.0376,0.23534 -0.0117,0.2847 -0.0494,0.0494 -0.0845,-0.0384 -0.078,-0.19496 z"
       id="path1" /></g></svg>
